<mxfile host="app.diagrams.net" agent="Mozilla/5.0 (Windows NT 10.0; Win64; x64) AppleWebKit/537.36 (KHTML, like Gecko) Chrome/129.0.0.0 Safari/537.36" version="24.7.16">
  <diagram name="P치gina-1" id="UmcYecVZxx46ROuis0xd">
    <mxGraphModel dx="1050" dy="530" grid="1" gridSize="10" guides="1" tooltips="1" connect="1" arrows="1" fold="1" page="1" pageScale="1" pageWidth="827" pageHeight="1169" math="0" shadow="0">
      <root>
        <mxCell id="0" />
        <mxCell id="1" parent="0" />
        <mxCell id="FKdrMBCJ1XlwXN7x7tW4-14" value="&lt;u&gt;Sistema&lt;/u&gt;" style="html=1;whiteSpace=wrap;fillColor=#cdeb8b;strokeColor=#36393d;" vertex="1" parent="1">
          <mxGeometry x="300" y="70" width="100" height="20" as="geometry" />
        </mxCell>
        <mxCell id="FKdrMBCJ1XlwXN7x7tW4-15" value="&lt;u&gt;Base de Datos&lt;/u&gt;" style="html=1;whiteSpace=wrap;fillColor=#cdeb8b;strokeColor=#36393d;" vertex="1" parent="1">
          <mxGeometry x="550" y="70" width="110" height="20" as="geometry" />
        </mxCell>
        <mxCell id="FKdrMBCJ1XlwXN7x7tW4-16" value="Usuario" style="shape=umlActor;verticalLabelPosition=bottom;verticalAlign=top;html=1;outlineConnect=0;" vertex="1" parent="1">
          <mxGeometry x="90" y="50" width="30" height="60" as="geometry" />
        </mxCell>
        <mxCell id="FKdrMBCJ1XlwXN7x7tW4-17" value="" style="html=1;points=[[0,0,0,0,5],[0,1,0,0,-5],[1,0,0,0,5],[1,1,0,0,-5]];perimeter=orthogonalPerimeter;outlineConnect=0;targetShapes=umlLifeline;portConstraint=eastwest;newEdgeStyle={&quot;curved&quot;:0,&quot;rounded&quot;:0};" vertex="1" parent="1">
          <mxGeometry x="100" y="160" width="10" height="200" as="geometry" />
        </mxCell>
        <mxCell id="FKdrMBCJ1XlwXN7x7tW4-18" value="" style="html=1;points=[[0,0,0,0,5],[0,1,0,0,-5],[1,0,0,0,5],[1,1,0,0,-5]];perimeter=orthogonalPerimeter;outlineConnect=0;targetShapes=umlLifeline;portConstraint=eastwest;newEdgeStyle={&quot;curved&quot;:0,&quot;rounded&quot;:0};" vertex="1" parent="1">
          <mxGeometry x="340" y="160" width="10" height="200" as="geometry" />
        </mxCell>
        <mxCell id="FKdrMBCJ1XlwXN7x7tW4-19" value="" style="html=1;points=[[0,0,0,0,5],[0,1,0,0,-5],[1,0,0,0,5],[1,1,0,0,-5]];perimeter=orthogonalPerimeter;outlineConnect=0;targetShapes=umlLifeline;portConstraint=eastwest;newEdgeStyle={&quot;curved&quot;:0,&quot;rounded&quot;:0};" vertex="1" parent="1">
          <mxGeometry x="600" y="160" width="10" height="200" as="geometry" />
        </mxCell>
        <mxCell id="FKdrMBCJ1XlwXN7x7tW4-20" value="1 solicitar actualizaci칩n de datos" style="html=1;verticalAlign=bottom;endArrow=block;curved=0;rounded=0;" edge="1" parent="1" target="FKdrMBCJ1XlwXN7x7tW4-18">
          <mxGeometry width="80" relative="1" as="geometry">
            <mxPoint x="110" y="170" as="sourcePoint" />
            <mxPoint x="190" y="170" as="targetPoint" />
          </mxGeometry>
        </mxCell>
        <mxCell id="FKdrMBCJ1XlwXN7x7tW4-21" value="2 validar datos" style="html=1;verticalAlign=bottom;endArrow=block;curved=0;rounded=0;" edge="1" parent="1">
          <mxGeometry width="80" relative="1" as="geometry">
            <mxPoint x="350" y="190" as="sourcePoint" />
            <mxPoint x="600" y="190" as="targetPoint" />
          </mxGeometry>
        </mxCell>
        <mxCell id="FKdrMBCJ1XlwXN7x7tW4-22" value="3 datos validados" style="html=1;verticalAlign=bottom;endArrow=open;dashed=1;endSize=8;curved=0;rounded=0;" edge="1" parent="1" target="FKdrMBCJ1XlwXN7x7tW4-18">
          <mxGeometry relative="1" as="geometry">
            <mxPoint x="600" y="230" as="sourcePoint" />
            <mxPoint x="355" y="230" as="targetPoint" />
          </mxGeometry>
        </mxCell>
        <mxCell id="FKdrMBCJ1XlwXN7x7tW4-23" value="4 actualizar cliente" style="html=1;verticalAlign=bottom;endArrow=block;curved=0;rounded=0;" edge="1" parent="1" source="FKdrMBCJ1XlwXN7x7tW4-18">
          <mxGeometry width="80" relative="1" as="geometry">
            <mxPoint x="355" y="270" as="sourcePoint" />
            <mxPoint x="600" y="270" as="targetPoint" />
          </mxGeometry>
        </mxCell>
        <mxCell id="FKdrMBCJ1XlwXN7x7tW4-24" value="5 cliente actualizado" style="html=1;verticalAlign=bottom;endArrow=open;dashed=1;endSize=8;curved=0;rounded=0;" edge="1" parent="1" target="FKdrMBCJ1XlwXN7x7tW4-18">
          <mxGeometry relative="1" as="geometry">
            <mxPoint x="600" y="310" as="sourcePoint" />
            <mxPoint x="355" y="310" as="targetPoint" />
          </mxGeometry>
        </mxCell>
        <mxCell id="FKdrMBCJ1XlwXN7x7tW4-25" value="" style="endArrow=none;dashed=1;html=1;dashPattern=1 3;strokeWidth=2;rounded=0;entryX=0.5;entryY=1;entryDx=0;entryDy=0;exitX=1;exitY=0;exitDx=0;exitDy=5;exitPerimeter=0;" edge="1" parent="1" source="FKdrMBCJ1XlwXN7x7tW4-18" target="FKdrMBCJ1XlwXN7x7tW4-14">
          <mxGeometry width="50" height="50" relative="1" as="geometry">
            <mxPoint x="350" y="140" as="sourcePoint" />
            <mxPoint x="440" y="250" as="targetPoint" />
          </mxGeometry>
        </mxCell>
        <mxCell id="FKdrMBCJ1XlwXN7x7tW4-26" value="" style="endArrow=none;dashed=1;html=1;dashPattern=1 3;strokeWidth=2;rounded=0;entryX=0.5;entryY=1;entryDx=0;entryDy=0;" edge="1" parent="1" source="FKdrMBCJ1XlwXN7x7tW4-17">
          <mxGeometry width="50" height="50" relative="1" as="geometry">
            <mxPoint x="104.5" y="205" as="sourcePoint" />
            <mxPoint x="104.5" y="130" as="targetPoint" />
          </mxGeometry>
        </mxCell>
        <mxCell id="FKdrMBCJ1XlwXN7x7tW4-27" value="" style="endArrow=none;dashed=1;html=1;dashPattern=1 3;strokeWidth=2;rounded=0;entryX=0.5;entryY=1;entryDx=0;entryDy=0;exitX=1;exitY=0;exitDx=0;exitDy=5;exitPerimeter=0;" edge="1" parent="1" source="FKdrMBCJ1XlwXN7x7tW4-19">
          <mxGeometry width="50" height="50" relative="1" as="geometry">
            <mxPoint x="609" y="150" as="sourcePoint" />
            <mxPoint x="609" y="90" as="targetPoint" />
          </mxGeometry>
        </mxCell>
        <mxCell id="FKdrMBCJ1XlwXN7x7tW4-28" value="6 confirmaci칩n de actualizaci칩n" style="html=1;verticalAlign=bottom;endArrow=block;curved=0;rounded=0;entryX=1;entryY=1;entryDx=0;entryDy=-5;entryPerimeter=0;" edge="1" parent="1" source="FKdrMBCJ1XlwXN7x7tW4-18" target="FKdrMBCJ1XlwXN7x7tW4-17">
          <mxGeometry width="80" relative="1" as="geometry">
            <mxPoint x="360" y="280" as="sourcePoint" />
            <mxPoint x="610" y="280" as="targetPoint" />
          </mxGeometry>
        </mxCell>
      </root>
    </mxGraphModel>
  </diagram>
</mxfile>
